<mxfile host="Electron" modified="2024-01-14T09:15:08.651Z" agent="Mozilla/5.0 (Windows NT 10.0; Win64; x64) AppleWebKit/537.36 (KHTML, like Gecko) draw.io/22.1.18 Chrome/120.0.6099.199 Electron/28.1.2 Safari/537.36" etag="fIdSu7NXxoZRqykb5QUQ" version="22.1.18" type="device" pages="2">
  <diagram name="User Requirement" id="9sJXqcHEQ29IW1Mf9JXt">
    <mxGraphModel dx="1036" dy="614" grid="1" gridSize="10" guides="1" tooltips="1" connect="1" arrows="1" fold="1" page="1" pageScale="1" pageWidth="1169" pageHeight="827" math="0" shadow="0">
      <root>
        <mxCell id="0" />
        <mxCell id="1" parent="0" />
        <mxCell id="8VkoDeALRluduzTqHhem-1" value="Application Domain" style="swimlane;whiteSpace=wrap;html=1;" vertex="1" parent="1">
          <mxGeometry x="300" y="150" width="320" height="310" as="geometry" />
        </mxCell>
        <mxCell id="8VkoDeALRluduzTqHhem-2" value="Schedule Appointment" style="html=1;whiteSpace=wrap;" vertex="1" parent="8VkoDeALRluduzTqHhem-1">
          <mxGeometry x="30" y="40" width="110" height="50" as="geometry" />
        </mxCell>
        <mxCell id="8VkoDeALRluduzTqHhem-4" value="Live Video Call by Appointment" style="html=1;whiteSpace=wrap;" vertex="1" parent="8VkoDeALRluduzTqHhem-1">
          <mxGeometry x="30" y="130" width="110" height="50" as="geometry" />
        </mxCell>
        <mxCell id="8VkoDeALRluduzTqHhem-5" value="Live Chat" style="html=1;whiteSpace=wrap;" vertex="1" parent="8VkoDeALRluduzTqHhem-1">
          <mxGeometry x="30" y="239" width="110" height="50" as="geometry" />
        </mxCell>
        <mxCell id="8VkoDeALRluduzTqHhem-10" value="Approve/Reject Appointment" style="html=1;whiteSpace=wrap;" vertex="1" parent="8VkoDeALRluduzTqHhem-1">
          <mxGeometry x="190" y="40" width="110" height="50" as="geometry" />
        </mxCell>
        <mxCell id="8VkoDeALRluduzTqHhem-11" value="Add Doctor Profile" style="html=1;whiteSpace=wrap;" vertex="1" parent="8VkoDeALRluduzTqHhem-1">
          <mxGeometry x="190" y="130" width="110" height="50" as="geometry" />
        </mxCell>
        <mxCell id="8VkoDeALRluduzTqHhem-6" style="edgeStyle=orthogonalEdgeStyle;rounded=0;orthogonalLoop=1;jettySize=auto;html=1;exitX=1;exitY=0.3333333333333333;exitDx=0;exitDy=0;exitPerimeter=0;entryX=0;entryY=0.5;entryDx=0;entryDy=0;" edge="1" parent="1" source="8VkoDeALRluduzTqHhem-3" target="8VkoDeALRluduzTqHhem-2">
          <mxGeometry relative="1" as="geometry" />
        </mxCell>
        <mxCell id="8VkoDeALRluduzTqHhem-7" style="edgeStyle=orthogonalEdgeStyle;rounded=0;orthogonalLoop=1;jettySize=auto;html=1;exitX=1;exitY=0.3333333333333333;exitDx=0;exitDy=0;exitPerimeter=0;entryX=0;entryY=0.5;entryDx=0;entryDy=0;" edge="1" parent="1" source="8VkoDeALRluduzTqHhem-3" target="8VkoDeALRluduzTqHhem-4">
          <mxGeometry relative="1" as="geometry" />
        </mxCell>
        <mxCell id="8VkoDeALRluduzTqHhem-8" style="edgeStyle=orthogonalEdgeStyle;rounded=0;orthogonalLoop=1;jettySize=auto;html=1;exitX=1;exitY=0.3333333333333333;exitDx=0;exitDy=0;exitPerimeter=0;entryX=0;entryY=0.5;entryDx=0;entryDy=0;" edge="1" parent="1" source="8VkoDeALRluduzTqHhem-3" target="8VkoDeALRluduzTqHhem-5">
          <mxGeometry relative="1" as="geometry" />
        </mxCell>
        <mxCell id="8VkoDeALRluduzTqHhem-17" value="" style="edgeStyle=orthogonalEdgeStyle;rounded=0;orthogonalLoop=1;jettySize=auto;html=1;" edge="1" parent="1" source="8VkoDeALRluduzTqHhem-3" target="8VkoDeALRluduzTqHhem-16">
          <mxGeometry relative="1" as="geometry" />
        </mxCell>
        <mxCell id="8VkoDeALRluduzTqHhem-3" value="User" style="shape=umlActor;verticalLabelPosition=bottom;verticalAlign=top;html=1;" vertex="1" parent="1">
          <mxGeometry x="210" y="300" width="30" height="60" as="geometry" />
        </mxCell>
        <mxCell id="8VkoDeALRluduzTqHhem-12" style="edgeStyle=orthogonalEdgeStyle;rounded=0;orthogonalLoop=1;jettySize=auto;html=1;exitX=0;exitY=0.3333333333333333;exitDx=0;exitDy=0;exitPerimeter=0;entryX=1;entryY=0.5;entryDx=0;entryDy=0;" edge="1" parent="1" source="8VkoDeALRluduzTqHhem-9" target="8VkoDeALRluduzTqHhem-10">
          <mxGeometry relative="1" as="geometry" />
        </mxCell>
        <mxCell id="8VkoDeALRluduzTqHhem-13" style="edgeStyle=orthogonalEdgeStyle;rounded=0;orthogonalLoop=1;jettySize=auto;html=1;exitX=0;exitY=0.3333333333333333;exitDx=0;exitDy=0;exitPerimeter=0;" edge="1" parent="1" source="8VkoDeALRluduzTqHhem-9" target="8VkoDeALRluduzTqHhem-11">
          <mxGeometry relative="1" as="geometry" />
        </mxCell>
        <mxCell id="8VkoDeALRluduzTqHhem-9" value="Admin" style="shape=umlActor;verticalLabelPosition=bottom;verticalAlign=top;html=1;" vertex="1" parent="1">
          <mxGeometry x="700" y="300" width="30" height="60" as="geometry" />
        </mxCell>
        <mxCell id="8VkoDeALRluduzTqHhem-16" value="Doctor" style="shape=umlActor;verticalLabelPosition=bottom;verticalAlign=top;html=1;" vertex="1" parent="1">
          <mxGeometry x="210" y="440" width="30" height="60" as="geometry" />
        </mxCell>
      </root>
    </mxGraphModel>
  </diagram>
  <diagram name="Pattern" id="ODwSHjDaxmlX_-8CFHxj">
    <mxGraphModel dx="1036" dy="614" grid="1" gridSize="10" guides="1" tooltips="1" connect="1" arrows="1" fold="1" page="1" pageScale="1" pageWidth="1169" pageHeight="827" math="0" shadow="0">
      <root>
        <mxCell id="3cdIksDeEEQwFpqSQIzs-0" />
        <mxCell id="3cdIksDeEEQwFpqSQIzs-1" parent="3cdIksDeEEQwFpqSQIzs-0" />
        <mxCell id="VYVTmGdDtmQ4qhNxldSg-2" style="edgeStyle=orthogonalEdgeStyle;rounded=0;orthogonalLoop=1;jettySize=auto;html=1;exitX=1;exitY=0.5;exitDx=0;exitDy=0;" edge="1" parent="3cdIksDeEEQwFpqSQIzs-1" source="VYVTmGdDtmQ4qhNxldSg-0" target="VYVTmGdDtmQ4qhNxldSg-1">
          <mxGeometry relative="1" as="geometry" />
        </mxCell>
        <mxCell id="VYVTmGdDtmQ4qhNxldSg-3" value="&lt;font color=&quot;#ff3333&quot;&gt;&lt;b&gt;UPDATE&lt;/b&gt;&lt;/font&gt;" style="edgeLabel;html=1;align=center;verticalAlign=middle;resizable=0;points=[];" vertex="1" connectable="0" parent="VYVTmGdDtmQ4qhNxldSg-2">
          <mxGeometry x="0.3886" y="-1" relative="1" as="geometry">
            <mxPoint as="offset" />
          </mxGeometry>
        </mxCell>
        <mxCell id="VYVTmGdDtmQ4qhNxldSg-8" style="edgeStyle=orthogonalEdgeStyle;rounded=0;orthogonalLoop=1;jettySize=auto;html=1;exitX=0;exitY=0.25;exitDx=0;exitDy=0;entryX=0.25;entryY=0;entryDx=0;entryDy=0;dashed=1;dashPattern=12 12;" edge="1" parent="3cdIksDeEEQwFpqSQIzs-1" source="VYVTmGdDtmQ4qhNxldSg-0" target="VYVTmGdDtmQ4qhNxldSg-4">
          <mxGeometry relative="1" as="geometry" />
        </mxCell>
        <mxCell id="VYVTmGdDtmQ4qhNxldSg-9" value="&lt;b&gt;&lt;font color=&quot;#ff3333&quot;&gt;NOTIFY&lt;/font&gt;&lt;/b&gt;" style="edgeLabel;html=1;align=center;verticalAlign=middle;resizable=0;points=[];" vertex="1" connectable="0" parent="VYVTmGdDtmQ4qhNxldSg-8">
          <mxGeometry x="-0.2949" y="-1" relative="1" as="geometry">
            <mxPoint as="offset" />
          </mxGeometry>
        </mxCell>
        <mxCell id="VYVTmGdDtmQ4qhNxldSg-0" value="ViewModel" style="rounded=1;whiteSpace=wrap;html=1;fillColor=#fff2cc;strokeColor=#d6b656;fontStyle=1;fontSize=15;" vertex="1" parent="3cdIksDeEEQwFpqSQIzs-1">
          <mxGeometry x="470" y="290" width="120" height="40" as="geometry" />
        </mxCell>
        <mxCell id="VYVTmGdDtmQ4qhNxldSg-5" style="edgeStyle=orthogonalEdgeStyle;rounded=0;orthogonalLoop=1;jettySize=auto;html=1;exitX=0;exitY=0.5;exitDx=0;exitDy=0;entryX=0.5;entryY=1;entryDx=0;entryDy=0;dashed=1;dashPattern=8 8;" edge="1" parent="3cdIksDeEEQwFpqSQIzs-1" source="VYVTmGdDtmQ4qhNxldSg-1" target="VYVTmGdDtmQ4qhNxldSg-0">
          <mxGeometry relative="1" as="geometry" />
        </mxCell>
        <mxCell id="VYVTmGdDtmQ4qhNxldSg-6" value="&lt;b&gt;&lt;font color=&quot;#ff0000&quot;&gt;NOTIFY&lt;/font&gt;&lt;/b&gt;" style="edgeLabel;html=1;align=center;verticalAlign=middle;resizable=0;points=[];" vertex="1" connectable="0" parent="VYVTmGdDtmQ4qhNxldSg-5">
          <mxGeometry x="-0.1657" relative="1" as="geometry">
            <mxPoint as="offset" />
          </mxGeometry>
        </mxCell>
        <mxCell id="VYVTmGdDtmQ4qhNxldSg-1" value="Model" style="rounded=1;whiteSpace=wrap;html=1;fillColor=#99CCFF;strokeColor=#d6b656;fontStyle=1;fontSize=15;" vertex="1" parent="3cdIksDeEEQwFpqSQIzs-1">
          <mxGeometry x="650" y="400" width="120" height="40" as="geometry" />
        </mxCell>
        <mxCell id="VYVTmGdDtmQ4qhNxldSg-10" style="edgeStyle=orthogonalEdgeStyle;rounded=0;orthogonalLoop=1;jettySize=auto;html=1;exitX=0.75;exitY=0;exitDx=0;exitDy=0;entryX=0;entryY=0.75;entryDx=0;entryDy=0;" edge="1" parent="3cdIksDeEEQwFpqSQIzs-1" source="VYVTmGdDtmQ4qhNxldSg-4" target="VYVTmGdDtmQ4qhNxldSg-0">
          <mxGeometry relative="1" as="geometry" />
        </mxCell>
        <mxCell id="VYVTmGdDtmQ4qhNxldSg-11" value="&lt;b&gt;&lt;font color=&quot;#ff0000&quot;&gt;DATA &lt;br&gt;BINDING&lt;/font&gt;&lt;/b&gt;" style="edgeLabel;html=1;align=center;verticalAlign=middle;resizable=0;points=[];" vertex="1" connectable="0" parent="VYVTmGdDtmQ4qhNxldSg-10">
          <mxGeometry x="-0.4103" y="2" relative="1" as="geometry">
            <mxPoint as="offset" />
          </mxGeometry>
        </mxCell>
        <mxCell id="VYVTmGdDtmQ4qhNxldSg-4" value="View" style="rounded=1;whiteSpace=wrap;html=1;fillColor=#FFE6CC;strokeColor=#82b366;fontStyle=1;fontSize=15;" vertex="1" parent="3cdIksDeEEQwFpqSQIzs-1">
          <mxGeometry x="260" y="394" width="120" height="40" as="geometry" />
        </mxCell>
        <mxCell id="VYVTmGdDtmQ4qhNxldSg-12" value="UI" style="shape=umlFrame;whiteSpace=wrap;html=1;pointerEvents=0;" vertex="1" parent="3cdIksDeEEQwFpqSQIzs-1">
          <mxGeometry x="250" y="250" width="190" height="200" as="geometry" />
        </mxCell>
        <mxCell id="VYVTmGdDtmQ4qhNxldSg-14" style="edgeStyle=orthogonalEdgeStyle;rounded=0;orthogonalLoop=1;jettySize=auto;html=1;entryX=0.5;entryY=1;entryDx=0;entryDy=0;" edge="1" parent="3cdIksDeEEQwFpqSQIzs-1" source="VYVTmGdDtmQ4qhNxldSg-13" target="VYVTmGdDtmQ4qhNxldSg-4">
          <mxGeometry relative="1" as="geometry" />
        </mxCell>
        <mxCell id="VYVTmGdDtmQ4qhNxldSg-13" value="Actor" style="shape=umlActor;verticalLabelPosition=bottom;verticalAlign=top;html=1;" vertex="1" parent="3cdIksDeEEQwFpqSQIzs-1">
          <mxGeometry x="305" y="500" width="30" height="60" as="geometry" />
        </mxCell>
        <mxCell id="VYVTmGdDtmQ4qhNxldSg-15" value="Backend" style="shape=umlFrame;whiteSpace=wrap;html=1;pointerEvents=0;" vertex="1" parent="3cdIksDeEEQwFpqSQIzs-1">
          <mxGeometry x="450" y="250" width="330" height="200" as="geometry" />
        </mxCell>
      </root>
    </mxGraphModel>
  </diagram>
</mxfile>
